<svg xmlns="http://www.w3.org/2000/svg" width="24" height="24" viewBox="0 0 24 24">
  <path fill="white" d="M12 .297c-6.63 0-12 5.373-12 12 0 5.303 
  3.438 9.8 8.205 11.387.6.113.82-.258.82-.577 
  0-.285-.01-1.04-.015-2.04-3.338.724-4.042-1.61-4.042-1.61-.546-1.387-1.333-1.757-1.333-1.757-1.09-.745.083-.729.083-.729 
  1.205.084 1.84 1.236 1.84 1.236 1.07 1.834 2.807 1.304 3.492.997.108-.776.418-1.305.762-1.605-2.665-.305-5.466-1.333-5.466-5.93 
  0-1.31.467-2.38 1.235-3.22-.123-.305-.535-1.527.117-3.176 0 0 1.008-.322 3.301 1.23.957-.266 
  1.983-.399 3.003-.404 1.02.005 2.047.138 3.006.404 
  2.291-1.552 3.297-1.23 3.297-1.23.653 1.649.241 2.871.118 
  3.176.77.84 1.233 1.91 1.233 3.22 
  0 4.61-2.803 5.624-5.475 5.921.43.37.823 1.102.823 2.222 
  0 1.606-.014 2.896-.014 3.286 
  0 .319.218.694.825.576C20.565 22.092 24 17.592 24 12.297 
  c0-6.627-5.373-12-12-12"/>
</svg>
