<svg xmlns="http://www.w3.org/2000/svg" viewBox="0 0 48 48" width="24" height="24">
  <path fill="#FFC107" d="M43.6 20.5H42V20H24v8h11.3C33.6 33.4 29.2 36 24 36c-6.6 0-12-5.4-12-12s5.4-12 12-12c3.1 0 5.9 1.2 8 3.1l5.7-5.7C34.1 6.1 29.3 4 24 4 12.9 4 4 12.9 4 24s8.9 20 20 20c11.1 0 20-8.9 20-20 0-1.3-.1-2.5-.4-3.5z"/>
  <path fill="#FF3D00" d="M6.3 14.7l6.6 4.8C14.3 16.2 18.8 14 24 14c3.1 0 5.9 1.2 8 3.1l5.7-5.7C34.1 6.1 29.3 4 24 4 16.1 4 9.1 8.6 6.3 14.7z"/>
  <path fill="#4CAF50" d="M24 44c5.2 0 10.1-2 13.7-5.3l-6.3-5.2C29.2 36 26.7 37 24 37c-5.2 0-9.6-3.6-11.1-8.5l-6.6 5C9.1 39.4 16.1 44 24 44z"/>
  <path fill="#1976D2" d="M43.6 20.5H42V20H24v8h11.3c-1.1 3-3.2 5.4-6.1 7.1l6.3 5.2c-1.7 1.6 7.5-4.6 7.5-16.3 0-1.3-.1-2.5-.4-3.5z"/>
</svg>
