<svg xmlns="http://www.w3.org/2000/svg" width="24" height="24" viewBox="0 0 24 24">
  <path fill="white" d="M20.447 20.452H16.89v-5.569c0-1.328-.027-3.039-1.849-3.039-1.849 
  0-2.132 1.445-2.132 2.939v5.669H9.354V9h3.415v1.561h.047c.477-.9 
  1.637-1.849 3.368-1.849 3.601 0 4.267 2.37 4.267 
  5.455v6.285zM5.337 7.433c-1.106 0-2-.896-2-2 
  0-1.104.894-2 2-2s2 .896 2 2c0 1.104-.894 
  2-2 2zm1.782 13.019H3.555V9h3.564v11.452zM22.225 
  0H1.771C.792 0 0 .774 0 1.729v20.542C0 
  23.226.792 24 1.771 24h20.451C23.2 24 24 
  23.226 24 22.271V1.729C24 .774 23.2 0 22.222 0h.003z"/>
</svg>
