<svg xmlns="http://www.w3.org/2000/svg" width="24" height="24" viewBox="0 0 24 24">
  <path fill="white" d="M23.954 4.569c-.885.389-1.83.654-2.825.775 
  1.014-.611 1.794-1.574 2.163-2.724-.951.564-2.005.974-3.127 
  1.195-.897-.959-2.178-1.559-3.594-1.559-2.717 
  0-4.924 2.206-4.924 4.923 0 .39.045.765.127 
  1.124-4.09-.205-7.719-2.165-10.148-5.144-.424.729-.666 
  1.577-.666 2.475 0 1.708.869 3.216 2.19 
  4.099-.807-.026-1.566-.248-2.229-.616v.061c0 
  2.385 1.693 4.374 3.946 4.827-.413.111-.849.171-1.296.171-.317 
  0-.626-.031-.928-.089.627 1.956 2.444 
  3.379 4.6 3.419-1.68 1.319-3.809 2.105-6.102 
  2.105-.396 0-.788-.023-1.175-.067 2.179 
  1.397 4.768 2.212 7.557 2.212 9.054 
  0 14-7.496 14-13.986 0-.21 0-.423-.016-.636.962-.689 
  1.8-1.56 2.46-2.548l-.047-.02z"/>
</svg>
