<svg width="256" height="256" viewBox="0 0 256 256" fill="none" xmlns="http://www.w3.org/2000/svg">
  <!-- fondo escudo -->
  <defs>
    <linearGradient id="g1" x1="0" y1="0" x2="1" y2="1">
      <stop offset="0" stop-color="#ffb457"/>
      <stop offset="1" stop-color="#ff6b2c"/>
    </linearGradient>
  </defs>
  <path d="M128 20c36 18 72 18 108 0v92c0 59-43 94-108 124C63 206 20 171 20 112V20c36 18 72 18 108 0Z" fill="url(#g1)"/>
  <!-- borde sutil -->
  <path d="M128 20c36 18 72 18 108 0v92c0 59-43 94-108 124C63 206 20 171 20 112V20c36 18 72 18 108 0Z" fill="none" stroke="rgba(0,0,0,0.25)" stroke-width="2"/>
  <!-- candado -->
  <rect x="88" y="96" width="80" height="64" rx="12" fill="rgba(0,0,0,0.75)"/>
  <path d="M104 96v-8c0-13.3 10.7-24 24-24h0c13.3 0 24 10.7 24 24v8" stroke="white" stroke-width="10" stroke-linecap="round"/>
  <!-- IA monograma -->
  <g fill="white">
    <rect x="104" y="112" width="8" height="32" rx="2"/>
    <path d="M140 144h-8l-3-8h-12l-3 8h-8l14-32h6l14 32Zm-14-14-4-10-4 10h8Z"/>
  </g>
</svg>
